<svg width="10" height="13" viewBox="0 0 10 13" fill="none" xmlns="http://www.w3.org/2000/svg">
<path d="M7.54002 13C7.06671 13.0006 6.60764 12.8381 6.24002 12.54L1.14002 8.33C0.940025 8.17078 0.778513 7.96851 0.667502 7.73824C0.556491 7.50797 0.49884 7.25563 0.49884 7C0.49884 6.74437 0.556491 6.49203 0.667502 6.26176C0.778513 6.03149 0.940025 5.82922 1.14002 5.67L6.24002 1.46C6.54705 1.21399 6.91702 1.05919 7.30775 1.01322C7.69849 0.967248 8.09428 1.03197 8.45002 1.2C8.75919 1.33628 9.02261 1.55867 9.2088 1.84062C9.39499 2.12257 9.49609 2.45215 9.50002 2.79V11.21C9.49609 11.5479 9.39499 11.8774 9.2088 12.1594C9.02261 12.4413 8.75919 12.6637 8.45002 12.8C8.16415 12.93 7.85405 12.9982 7.54002 13ZM2.68002 7L7.50002 11V3.09L2.68002 7Z" fill="#D1D1D1"/>
</svg>
