<svg width="1100" height="800" viewBox="0 0 1100 800" fill="none" xmlns="http://www.w3.org/2000/svg">
<g clip-path="url(#clip0_74_40)">
<path d="M781.02 488.77V558.55C781.02 559.63 780.14 560.51 779.05 560.51L643.93 560.47C642.84 560.47 641.33 561.09 640.55 561.86L601.32 600.82C600.388 601.655 599.2 602.149 597.95 602.22H522.57C522.048 602.22 521.547 602.012 521.177 601.643C520.808 601.274 520.6 600.773 520.6 600.25V566.75" stroke="#9BE4D3"/>
<path d="M674.88 355.57L720.42 310.33C721.254 309.406 721.745 308.223 721.81 306.98L721.75 296.6C721.75 295.52 721.12 294.02 720.35 293.25L676.97 250.18C676.786 249.999 676.639 249.784 676.54 249.546C676.44 249.308 676.388 249.053 676.388 248.795C676.388 248.537 676.44 248.282 676.54 248.044C676.639 247.806 676.786 247.591 676.97 247.41L759.8 165.16C760.732 164.325 761.92 163.831 763.17 163.76L808.11 163.86C809.19 163.86 810.71 163.24 811.48 162.49L952.5 22.65" stroke="#E6D999"/>
<path d="M507 -76.68V188.79C507.003 189.849 507.425 190.864 508.175 191.612C508.925 192.36 509.941 192.78 511 192.78H566C567.08 192.78 567.97 193.66 567.97 194.74V342.24C567.97 343.32 567.34 344.83 566.57 345.59L518.67 392.99C517.836 393.911 517.342 395.09 517.27 396.33C517.27 398.58 517.91 400.09 518.67 400.86L572.49 454.12C573.26 454.88 574.25 455.51 574.68 455.51C575.11 455.51 575.47 456.39 575.47 457.47V527.64C575.47 528.71 574.58 529.6 573.5 529.6L487.69 529.56C486.6 529.56 485.09 530.18 484.31 530.95L482.76 532.49C481.825 533.327 480.633 533.821 479.38 533.89H470.09" stroke="#99E6E3"/>
<path d="M8 127.82V518.88C7.99995 519.945 8.42009 520.966 9.16911 521.723C9.91813 522.479 10.9355 522.909 12 522.92L140.8 524" stroke="#99E6B3"/>
<path d="M894.01 374L943.81 324.56C944.742 323.725 945.93 323.231 947.18 323.16H1039.59C1040.68 323.16 1042.19 323.79 1042.97 324.56L1070.15 351.55" stroke="#99D4E6"/>
<path d="M894.01 374L943.81 324.56C944.742 323.725 945.93 323.231 947.18 323.16H1039.59C1040.68 323.16 1042.19 323.79 1042.97 324.56L1070.15 351.55" stroke="#99D4E6"/>
<path d="M755.16 213.9L825.98 213.94C827.06 213.94 828.58 213.31 829.35 212.54L920.96 121.57C921.893 120.738 923.082 120.248 924.33 120.18H1001.4L930.11 48.05C929.274 47.1262 928.78 45.9439 928.71 44.7V16.87" stroke="#99E6B3"/>
<path d="M261.78 -52.44L272.94 -41.36C273.71 -40.59 274.34 -39.08 274.34 -38.01V-5L156.7 111.03L71.2999 195.83C70.4641 196.754 69.97 197.936 69.8999 199.18V299.85C69.8999 300.93 70.7899 301.81 71.8699 301.81H122.27C123.36 301.81 124.25 302.69 124.25 303.77L124.32 330.69C124.32 331.76 125.22 332.65 126.3 332.65L462.03 332.78C463.12 332.78 464.01 333.66 464.01 334.74V371.53L421.02 415.31C420.088 416.145 418.899 416.639 417.65 416.71H385.2" stroke="#CBE49B"/>
<path d="M564.8 549.64V567.4C564.8 568.48 564.16 569.99 563.4 570.75L382.28 750.6C381.344 751.434 380.152 751.924 378.9 751.99H269.8C268.71 751.99 267.83 752.87 267.83 753.95V777.32C267.83 778.39 266.93 779.28 265.85 779.28H182.31C181.23 779.28 180.34 780.16 180.34 781.24V827.04C180.34 828.11 181.23 828.99 182.31 828.99H212.2C213.28 828.99 214.17 829.87 214.17 830.95V882.02C214.17 883.1 214.8 884.61 215.57 885.37L225.89 895.62C226.66 896.38 228.18 897.01 229.26 897.01H341.03C342.12 897.01 342.37 897.63 341.6 898.4M482.82 656H630.9" stroke="#E699BE"/>
<path d="M440.53 245.87L408.83 277.35C407.897 278.182 406.708 278.672 405.46 278.74H343.09C342 278.74 340.49 279.36 339.71 280.13L337.03 283.79L72.4401 283.81C71.3601 283.81 69.8401 283.18 69.0701 282.41L21.7701 235.44C20.8366 234.608 19.6484 234.118 18.4001 234.05H-39.0699L-40.1899 199.44C-40.1899 198.36 -40.8199 196.85 -41.5899 196.09L-108.13 130.15" stroke="#E6AC99"/>
<path d="M705.31 221.73H713.14C714.23 221.73 715.74 222.36 716.51 223.13L762.31 268.73C763.09 269.49 763.71 271 763.71 272.08V286.02C763.71 287.1 764.17 287.98 764.74 288C765.3 288 765.77 288.9 765.77 289.98V300.75L765.62 411.59C765.62 412.67 764.73 413.55 763.64 413.55H628.32C627.24 413.55 625.72 412.92 624.95 412.15L612.75 400.03C611.814 399.196 610.622 398.706 609.37 398.64H563.19C562.666 398.64 562.164 398.845 561.79 399.212C561.416 399.578 561.201 400.077 561.19 400.6L561.02 427.34C561.02 428.42 560.39 429.93 559.62 430.69L550.8 439.45C549.867 440.282 548.678 440.772 547.43 440.84L520.78 440.78C519.69 440.78 518.18 441.4 517.4 442.17L469.3 489.95C468.364 490.784 467.172 491.274 465.92 491.34H449.55L370.1 491.32C369.01 491.32 367.5 491.95 366.74 492.71L220.71 639.06C219.785 639.894 218.604 640.388 217.36 640.46H31.0601" stroke="#C1AFD0"/>
<path d="M145.43 99.41L289.6 243.5C290.37 244.26 291.89 244.89 292.97 244.89H439.73C440.82 244.89 442.33 245.51 443.11 246.28L475.04 277.99C475.81 278.76 476.44 280.26 476.44 281.34V474.1C476.44 475.18 475.81 476.69 475.04 477.45L467.44 484.99C466.51 485.823 465.326 486.317 464.08 486.39H443.46L422.79 507.36L420.01 510.14L289.37 640C288.534 640.924 288.04 642.106 287.97 643.35L288.13 821.2" stroke="#E6BE99"/>
<path d="M318.82 380.62H413.7C414.79 380.62 416.3 381.25 417.08 382.01L432.05 396.88C432.82 397.64 434.34 398.27 435.42 398.27H508.41C509.49 398.27 511.01 398.9 511.76 399.66L570.33 458.19C571.1 458.96 572.6 459.59 573.68 459.59H677.05C678.13 459.59 679.02 458.7 679.02 457.62V442.92C679.02 441.83 678.13 440.95 677.05 440.95L670.35 440.97H630.1C629.579 440.97 629.08 440.764 628.711 440.397C628.341 440.029 628.133 439.531 628.13 439.01V382.01C628.13 380.93 627.5 379.42 626.73 378.66L612.15 364.18C611.314 363.256 610.82 362.074 610.75 360.83V343.53C610.75 342.46 610.12 340.95 609.35 340.19L597 327.92C596.067 327.088 594.878 326.598 593.63 326.53H576.23C575.14 326.53 573.63 325.91 572.85 325.14L531.05 283.64C530.118 282.805 528.93 282.311 527.68 282.24H486.34" stroke="#E69999"/>
<path d="M855.2 194.4H915.04C916.13 194.4 917.01 195.29 917.01 196.36V225.1C917.01 226.18 917.65 227.69 918.41 228.45L969.37 279.05C970.14 279.81 970.77 281.32 970.77 282.4V383.87L1075.97 488.14" stroke="#B0D8A6"/>
<path d="M638.46 305.73L651 293.29C651.77 292.55 651.77 291.29 651 290.53L619.65 259.4C618.89 258.66 618.89 257.4 619.65 256.64L638.18 238.24C639.114 237.408 640.302 236.918 641.55 236.85L801.96 236.65L1225.33 237.85C1226.41 237.85 1227.3 238.74 1227.3 239.81V311.31" stroke="#E699BE"/>
<path d="M438.61 486.03H420.07C418.99 486.03 417.47 485.4 416.7 484.63L341.76 410.22C340.828 409.385 339.64 408.891 338.39 408.82H299.82C298.74 408.82 297.22 408.2 296.45 407.44L249.45 360.76L212.87 360.72L155.87 432.31C155.034 433.234 154.54 434.416 154.47 435.66V459.56" stroke="#E6BE99"/>
<path d="M882.06 358.97L835.14 405.57C834.204 406.404 833.012 406.894 831.76 406.96H737.12C736.03 406.96 734.52 406.33 733.74 405.56L703.14 375.23C702.211 374.397 701.026 373.903 699.78 373.83L664.84 373.87C663.76 373.87 662.24 374.5 661.47 375.27L631.9 404.63C630.967 405.462 629.778 405.952 628.53 406.02L613.98 391.67C613.03 390.832 611.825 390.339 610.56 390.27L453.59 390.02C452.48 390.02 450.94 390.65 450.16 391.42L422.31 419.03C421.375 419.867 420.183 420.361 418.93 420.43H-23.8199L-112.47 420.63L-124.91 432.98" stroke="#B0D8A6"/>
<path d="M292.9 643.74L352.46 584.62C353.394 583.788 354.582 583.298 355.83 583.23H379.76C380.84 583.23 382.36 582.6 383.13 581.84L429.66 535.63C430.595 534.793 431.787 534.299 433.04 534.23H466.57L620.24 534.22C621.32 534.22 622.21 533.34 622.21 532.26V420.01C622.21 418.94 621.58 417.43 620.81 416.66L582.17 378.29C581.334 377.366 580.84 376.184 580.77 374.94V323.42C580.77 322.34 580.13 320.83 579.37 320.07L468.91 210.39C467.975 209.553 466.783 209.059 465.53 208.99L285.04 209.19" stroke="#99C9E6"/>
<path d="M484.13 548.71H447.04C445.96 548.71 444.44 549.34 443.67 550.11L374.65 618.65C373.88 619.41 373.88 620.65 374.65 621.41L402.74 649.19C403.51 649.95 405.03 650.58 406.11 650.58H468.52" stroke="#E699BE"/>
<path d="M520.82 561.7V556.96C520.82 555.88 519.93 555 518.84 555H505.63C504.54 555 503.03 554.38 502.26 553.61L458.9 510.73C458.064 509.806 457.57 508.624 457.5 507.38V316.98C457.5 315.9 458.13 314.38 458.9 313.62L479.79 292.88C480.626 291.956 481.12 290.774 481.19 289.53V194.13C481.19 193.05 480.56 191.55 479.79 190.78L292.4 4.69999L291.8 -36.18C291.8 -37.26 291.18 -38.76 290.4 -39.53L278.8 -51.07" stroke="#9BE4D3"/>
<path d="M275.76 745H375.04C376.13 745 377.64 744.37 378.42 743.6L552.75 570.85C553.685 570.013 554.877 569.519 556.13 569.45H602.88C603.96 569.45 605.48 568.83 606.23 568.07L657.7 516.61C658.531 515.685 659.018 514.502 659.08 513.26V311.29C659.08 310.22 658.45 308.71 657.68 307.94L605.84 256.64C604.905 255.803 603.713 255.309 602.46 255.24H584.51C583.991 255.24 583.493 255.035 583.124 254.67C582.755 254.305 582.545 253.809 582.54 253.29V208.82C582.54 207.75 581.65 206.86 580.57 206.86H491.94C491.419 206.86 490.92 206.654 490.551 206.287C490.181 205.919 489.973 205.421 489.97 204.9V185.7C489.97 184.63 489.33 183.12 488.57 182.36L309.87 4.91998" stroke="#99D6E6"/>
<path d="M1002.65 123.83H926.5C925.42 123.83 923.9 124.45 923.13 125.22L830.85 216.68C829.916 217.512 828.728 218.002 827.48 218.07L695.61 217.99C694.52 217.99 693.01 218.62 692.24 219.36L640.34 270.55C639.57 271.31 639.57 272.55 640.34 273.31L661.56 294.41C662.33 295.17 662.96 296.68 662.96 297.76V313.45" stroke="#E6D999"/>
<path d="M672.51 437.64H726.76C727.84 437.64 729.36 438.27 730.13 439.04L779.17 487.74C779.94 488.5 781.46 489.12 782.54 489.12H827.7C828.78 489.12 830.3 488.5 831.07 487.73L914.39 405C915.322 404.165 916.51 403.671 917.76 403.6H959.98C961.06 403.6 962.58 404.23 963.35 405L1064.15 505.1" stroke="#E6999E"/>
<path d="M672.51 434.31H728.14C729.22 434.31 730.74 434.94 731.51 435.71L780.65 484.51C781.42 485.27 782.94 485.89 784.02 485.89L825.92 485.85C827 485.85 828.52 485.23 829.29 484.46L891.37 422.78C892.206 421.856 892.7 420.674 892.77 419.43L892.67 151.25C892.67 150.17 892.04 148.66 891.27 147.9L791.47 48.62C790.537 47.7884 789.348 47.2983 788.1 47.23H422.62C421.54 47.23 420.02 47.86 419.25 48.63L260.28 206.3C259.344 207.134 258.152 207.624 256.9 207.69H127.3C126.22 207.69 124.7 208.31 123.93 209.08L87.2201 245.53C86.3842 246.454 85.8901 247.636 85.8201 248.88V433.98" stroke="#E6AC99"/>
<path d="M410.1 713.73L427.63 731.15C428.4 731.91 429.92 732.54 431 732.54H473.02C474.11 732.54 475.62 731.91 476.39 731.14L502.41 705.31L625.61 705" stroke="#99D6E6"/>
<path d="M307.34 907.08C308.11 906.31 307.86 905.68 306.77 905.68H108.29C107.769 905.683 107.269 905.479 106.898 905.114C106.527 904.748 106.315 904.251 106.31 903.73V743.59C106.31 742.51 107.21 741.63 108.29 741.63H372.67C373.76 741.63 375.27 741 376.05 740.23L399.8 716.65C400.57 715.89 400.57 714.65 399.8 713.89L318.96 633.79C318.19 633.03 318.45 632.39 319.53 632.39H457.06C458.15 632.39 459.66 631.77 460.44 631.01L514.07 577.75C515.002 576.915 516.19 576.421 517.44 576.35L606.01 576.15C607.1 576.15 608.61 575.53 609.39 574.77L664.99 519.55C665.826 518.626 666.32 517.444 666.39 516.2V409.93C666.39 408.85 667.29 407.97 668.37 407.97H697.37C698.45 407.97 699.97 407.34 700.74 406.57L744.06 363.56C744.992 362.725 746.18 362.231 747.43 362.16H753.54C754.63 362.16 756.14 361.54 756.92 360.78L810.04 308.02C810.974 307.188 812.162 306.698 813.41 306.63H827.01C828.09 306.63 829.61 307.26 830.38 308.03L892.79 370C893.56 370.77 895.08 371.4 896.16 371.4H970.22C971.3 371.4 972.82 372.02 973.59 372.78L1067.56 466.28" stroke="#99C9E6"/>
<path d="M647.56 429.46V395.84C647.56 394.76 646.93 393.25 646.16 392.49L614.71 361.27C613.778 360.435 612.59 359.941 611.34 359.87H574.47C573.39 359.87 571.87 360.5 571.1 361.27L496.75 435.1C495.816 435.932 494.628 436.422 493.38 436.49H440.9C440.641 436.491 440.385 436.442 440.145 436.344C439.906 436.246 439.688 436.102 439.504 435.92C439.32 435.738 439.174 435.522 439.074 435.283C438.974 435.045 438.921 434.789 438.92 434.53V363.03C438.92 361.95 438.04 361.07 436.95 361.07H9.3C8.22 361.07 6.70001 361.7 5.93001 362.47L-31.97 400.09C-32.9021 400.925 -34.0904 401.419 -35.34 401.49H-92.34C-93.44 401.49 -94.95 402.11 -95.72 402.87L-108.92 415.97C-109.852 416.805 -111.04 417.299 -112.29 417.37H-125.49" stroke="#E6B099"/>
<path d="M219.9 357H364.39L440.93 357.13C442.01 357.13 442.9 358.01 442.9 359.09V430.79C442.9 431.87 443.79 432.75 444.87 432.75H491.23C492.31 432.75 493.83 432.12 494.6 431.35L568.95 357.35C569.882 356.515 571.07 356.021 572.32 355.95H764.65C765.74 355.95 767.25 355.33 768.02 354.57L811.6 311.29C812.533 310.458 813.722 309.968 814.97 309.9H825.57C826.65 309.9 828.17 310.53 828.94 311.3L891.59 373.5C892.36 374.27 893.88 374.9 894.96 374.9H968.83C969.92 374.9 971.43 375.53 972.21 376.3L1066.33 469.77L1075.6 470.34C1076.44 470.34 1077.77 469.72 1078.53 468.95L1182.61 379.59C1182.98 379.222 1183.48 379.016 1184 379.016C1184.52 379.016 1185.02 379.222 1185.39 379.59L1191.69 385.84" stroke="#E6D999"/>
<path fill-rule="evenodd" clip-rule="evenodd" d="M599.92 564.19C601.417 564.108 602.842 563.519 603.96 562.52L651.9 514.92C652.9 513.814 653.49 512.399 653.57 510.91V313.84C653.57 312.54 652.82 310.74 651.9 309.82L603.96 262.22C602.841 261.224 601.416 260.639 599.92 260.56H502.08C500.58 260.637 499.152 261.222 498.03 262.22L450.1 309.82C449.094 310.927 448.501 312.347 448.42 313.84V510.91C448.42 512.2 449.17 514.01 450.1 514.92L498.03 562.52C499.15 563.522 500.579 564.111 502.08 564.19H599.92Z" stroke="#CBE49B"/>
<path d="M648.25 527.17V560.47C648.25 561.55 647.62 563.05 646.85 563.82L559.48 650.58C558.71 651.34 558.97 651.97 560.05 651.97H630.87" stroke="#99D6E6"/>
<path d="M476.04 273.32V254.46C476.04 253.38 475.41 251.87 474.64 251.11L443.74 220.43C442.808 219.595 441.62 219.101 440.37 219.03H274.62" stroke="#E6BE99"/>
<path d="M923.43 372.6V119.09C923.43 118.02 922.79 116.51 922.03 115.75L757.4 -47.74C756.467 -48.5716 755.278 -49.0617 754.03 -49.13H351.57C350.48 -49.13 348.97 -48.5 348.19 -47.73L310.5 -10.3" stroke="#C1AFD0"/>
<path d="M317 -49.77L304.42 -37.3C303.586 -36.3734 303.086 -35.194 303 -33.95L302.64 -12.5C302.687 -11.2585 303.168 -10.0728 304 -9.15002L493.36 178.9C494.13 179.66 494.76 181.17 494.76 182.25V200.66C494.76 201.74 495.65 202.62 496.73 202.62H584.59C585.68 202.62 586.57 203.5 586.57 204.58V239.25C586.57 240.33 587.45 241.21 588.54 241.21H611.84C612.92 241.21 614.44 241.84 615.21 242.61L661.37 288.44C662.14 289.21 662.77 290.72 662.77 291.79V430.43L662.84 514.83C662.84 515.91 662.21 517.43 661.46 518.18L607.83 571.45C606.897 572.282 605.708 572.772 604.46 572.84H557.9C556.82 572.84 555.3 573.47 554.53 574.23L380.57 746.98C379.634 747.814 378.442 748.304 377.19 748.37H112.47C111.38 748.37 110.5 749.25 110.5 750.33V843.57C110.5 844.65 109.6 845.53 108.52 845.53H-116.02" stroke="#E6BB99"/>
<path d="M415.07 612.97L478.37 550.11C479.302 549.275 480.49 548.781 481.74 548.71H606.41C607.49 548.71 609.01 548.11 609.78 547.34L638.01 519.51C638.849 518.596 639.344 517.419 639.41 516.18V478.2C639.41 477.13 640.3 476.24 641.38 476.24H694C695.09 476.24 695.97 475.36 695.97 474.29V422.18C695.97 421.1 696.61 419.59 697.37 418.83L726.94 389.46C727.776 388.536 728.27 387.354 728.34 386.11V310.11C728.34 309.03 729.24 308.15 730.32 308.15H768.22C769.281 308.15 770.298 307.729 771.048 306.978C771.799 306.228 772.22 305.211 772.22 304.15V274.85C772.22 273.77 772.85 272.26 773.62 271.5L808.97 236.5" stroke="#E699BE"/>
<path d="M893.1 374.7L847.5 420C846.565 420.828 845.377 421.314 844.13 421.38H618.66C617.57 421.38 616.06 420.76 615.29 419.99L533.64 338.91C532.706 338.078 531.518 337.588 530.27 337.52H384.49C383.41 337.52 381.89 338.15 381.12 338.92L363.98 355.94" stroke="#99D4E6"/>
<path d="M288.52 640.2H241.62C240.53 640.2 239.64 641.08 239.64 642.15V668.8C239.64 669.87 238.75 670.75 237.67 670.75H148.35" stroke="#AADBA4"/>
<path d="M281.34 229.6L290.99 239.19C291.76 239.95 293.28 240.58 294.36 240.58L441.12 240.38C442.21 240.38 443.72 241.01 444.5 241.75L560.45 355.75C561.22 356.51 561.22 357.74 560.45 358.5L523.25 395.55C523.067 395.732 522.921 395.949 522.822 396.187C522.723 396.426 522.672 396.682 522.672 396.94C522.672 397.198 522.723 397.454 522.822 397.693C522.921 397.931 523.067 398.148 523.25 398.33L572.87 447.61C573.64 448.38 575.17 449.01 576.25 449.01H714.53C715.61 449.01 717.13 449.63 717.9 450.4L755.16 487.4C755.93 488.16 757.46 488.8 758.54 488.8H780.24" stroke="#E5DC9A"/>
<path d="M-116.02 841.87H100.75C101.84 841.87 102.72 840.98 102.72 839.91V740.08C102.72 739 103.62 738.12 104.7 738.12H370.94C372.02 738.12 373.54 737.5 374.31 736.73L394.49 716.69C395.26 715.93 395.26 714.67 394.49 713.93L315.79 635.73C314.954 634.806 314.46 633.624 314.39 632.38V630.81C314.39 629.74 315.27 628.85 316.36 628.85L455.58 628.87C456.67 628.87 458.18 628.25 458.96 627.48L512.66 574C513.415 573.241 514.399 572.752 515.46 572.61C516.22 572.61 516.87 571.73 516.87 570.65V564.03" stroke="#CBE49B"/>
<path d="M317.92 257.82L391.08 330.47C391.85 331.24 392.48 332.74 392.48 333.82V379.07C392.48 380.15 393.11 381.66 393.88 382.42L405.9 394.35C406.67 395.12 408.18 395.75 409.27 395.75H419.13C420.22 395.75 421.73 395.12 422.51 394.35L428.8 388.1C429.733 387.268 430.922 386.778 432.17 386.71H517.98C519.06 386.71 520.58 386.09 521.35 385.32L584.45 322.66C585.385 321.823 586.577 321.329 587.83 321.26H749.39C750.47 321.26 751.36 322.15 751.36 323.22V501.88C751.36 502.95 750.73 504.46 749.96 505.23L738.54 516.57C737.604 517.404 736.412 517.894 735.16 517.96H529.03C528.771 517.961 528.515 517.912 528.275 517.814C528.036 517.716 527.818 517.572 527.634 517.39C527.45 517.208 527.304 516.992 527.204 516.753C527.103 516.515 527.051 516.259 527.05 516V442.93C527.05 441.86 526.17 440.97 525.08 440.97H436.82C436.301 440.97 435.803 440.765 435.434 440.4C435.065 440.035 434.855 439.539 434.85 439.02V406.5C434.85 405.42 433.96 404.54 432.88 404.54C430.89 404.54 429.38 403.91 428.6 403.14L421.16 395.76" stroke="#E699CD"/>
<path d="M650.42 -78.35V133.01C650.42 134.09 651.05 135.6 651.82 136.36L698.55 182.76C699.32 183.53 699.95 185.04 699.95 186.12V221.91L697.46 221.77C696.71 221.77 695.49 222.4 694.72 223.17L676.4 241.36C675.564 242.284 675.07 243.466 675 244.71V361.66C675 362.73 675.63 364.24 676.38 365.01L722.91 411.59C723.741 412.515 724.228 413.698 724.29 414.94L724.27 445.28C724.27 446.36 723.64 447.87 722.87 448.63L717.96 453.51C717.028 454.345 715.839 454.839 714.59 454.91H599.52C598.44 454.91 597.55 455.78 597.55 456.86V492.86C597.55 493.94 596.66 494.82 595.58 494.82H502.87C501.78 494.82 500.27 495.45 499.49 496.22L479.91 515.67C478.974 516.504 477.782 516.994 476.53 517.06H412.92" stroke="#E699BE"/>
<path d="M281.48 745V829.33C281.48 830.41 280.59 831.29 279.51 831.29H222.03C220.94 831.29 220.05 832.17 220.05 833.25V843.61C220.05 844.69 219.17 845.57 218.08 845.57H110.52" stroke="#99D6E6"/>
<path d="M10.95 362.32L124.35 474.94C125.13 475.71 126.65 476.34 127.73 476.34H163.85C164.93 476.34 166.45 476.96 167.22 477.72L372.67 681.75C373.44 682.51 374.96 683.14 376.04 683.14L438.78 683.17H468.31C469.4 683.17 470.91 683.8 471.68 684.57L488.04 700.8C488.81 701.57 490.33 702.2 491.41 702.2H625.75" stroke="#E6D299"/>
<path d="M275.82 590.44L300.26 566.17C301.192 565.335 302.381 564.841 303.63 564.77H425.15C426.23 564.77 427.75 565.4 428.52 566.17L462.84 600.25C463.61 601.02 465.14 601.65 466.22 601.65H520.58" stroke="#9BE4D3"/>
<path d="M633.41 278.74L612.05 257.52C611.214 256.596 610.72 255.414 610.65 254.17V-78.58" stroke="#E6CC99"/>
<path d="M754.4 192.02V212.13C754.4 213.21 753.5 214.09 752.42 214.09H657.93C656.85 214.09 655.33 214.72 654.56 215.49L604.28 265.42C603.444 266.344 602.95 267.526 602.88 268.77V325.18C602.88 326.26 603.51 327.77 604.28 328.53L614.91 339.09C615.68 339.85 616.31 341.36 616.31 342.44V463.89C616.31 464.97 615.42 465.85 614.34 465.85H429.6C428.52 465.85 427 465.23 426.23 464.46L405.03 443.4L389.26 458.2C388.325 459.028 387.137 459.514 385.89 459.58H282.15C281.07 459.58 279.55 460.21 278.78 460.95L216.68 522.25C215.745 523.076 214.556 523.559 213.31 523.62H143.46C142.37 523.62 140.86 524.25 140.09 525.02L71.87 592.75C70.9379 593.585 69.7496 594.079 68.5 594.15H34.1C33.01 594.15 31.5 594.77 30.72 595.53L-30.92 656.75C-31.7558 657.674 -32.2499 658.856 -32.32 660.1V758.12C-32.32 759.2 -33.21 760.08 -34.29 760.08H-65.05C-66.13 760.08 -67.65 760.71 -68.42 761.48L-116.71 809.43" stroke="#99E6B3"/>
<path d="M184.55 422.03V456.12C184.55 457.19 183.92 458.7 183.15 459.47L126.67 515.35C125.738 516.185 124.549 516.679 123.3 516.75H-34.6001" stroke="#B0D8A6"/>
<path d="M980.12 416.59L965.07 401.64C964.135 400.803 962.943 400.309 961.69 400.24H915.65C914.57 400.24 913.05 400.87 912.28 401.64L897.78 416.04C897.01 416.8 896.38 416.54 896.38 415.47V380.54C896.38 379.46 895.75 377.96 894.98 377.19L892.5 374.72" stroke="#E6AC99"/>
<path d="M826.77 238.25V292.68C826.77 293.76 827.4 295.27 828.17 296.03L914.55 381.81C915.32 382.58 916.84 383.21 917.92 383.21H1016.53C1017.62 383.21 1019.13 382.58 1019.89 381.81L1042.49 359.01C1043.42 358.177 1044.6 357.687 1045.85 357.62H1152.23C1153.31 357.62 1154.2 356.74 1154.2 355.66L1154.24 260.42C1154.24 259.34 1155.13 258.46 1156.21 258.46H1195.23C1196.32 258.46 1197.2 259.34 1197.2 260.42V308.52" stroke="#E699BE"/>
<path d="M12.8699 361.05H7.86991C6.76991 361.05 5.25991 360.42 4.48991 359.65L-13.2301 342.07C-14.1622 341.235 -15.3505 340.741 -16.6001 340.67H-33.5001C-34.5901 340.67 -36.1001 340.05 -36.8801 339.29L-92.5201 284.03C-93.4549 283.193 -94.647 282.699 -95.9001 282.63H-111.09" stroke="#E6B099"/>
<path d="M959.23 126.08L978.43 145.14C979.19 145.9 980.71 146.53 981.79 146.53H1159.21C1160.3 146.53 1161.18 147.41 1161.18 148.49V249.33C1161.18 250.126 1161.5 250.889 1162.06 251.451C1162.62 252.014 1163.38 252.33 1164.18 252.33H1200.6C1201.68 252.33 1202.57 253.21 1202.57 254.29V308.94" stroke="#A0DEBC"/>
<path d="M33.1699 798.75H275.29C276.37 798.75 277.26 797.87 277.26 796.79V672.9C277.26 671.82 276.37 670.94 275.29 670.94H245.17C244.911 670.941 244.655 670.892 244.415 670.794C244.176 670.696 243.958 670.552 243.774 670.37C243.59 670.188 243.444 669.972 243.344 669.733C243.243 669.495 243.191 669.239 243.19 668.98V642.22C243.19 641.15 242.31 640.26 241.22 640.26H220.35" stroke="#99BBE6"/>
<path d="M458.48 496.1H468.03C469.12 496.1 470.63 495.47 471.4 494.7L519.63 446.87C520.566 446.036 521.758 445.546 523.01 445.48H547.27C548.35 445.48 549.87 446.11 550.64 446.87L573.9 469.97C574.67 470.73 576.19 471.36 577.27 471.36H688.33C689.42 471.36 690.3 470.48 690.3 469.4V414.94C690.3 413.86 689.67 412.35 688.9 411.61L668.55 391.57L665.75 388.81L664.58 387.65C663.646 386.818 662.458 386.328 661.21 386.26H649.55C649.029 386.26 648.53 386.054 648.16 385.687C647.791 385.319 647.583 384.821 647.58 384.3V310.6C647.58 309.52 648.46 308.64 649.55 308.64H726.93" stroke="#E6C999"/>
<path d="M-34.9399 402.19V513.38C-34.9399 514.45 -34.3099 515.96 -33.5399 516.73L15.5201 565.44C16.2801 566.21 17.8001 566.84 18.8901 566.84H40.6901C41.7701 566.84 43.2901 567.46 44.0601 568.23L157.06 680.45C157.84 681.22 159.36 681.85 160.44 681.85H331.04C332.12 681.85 333.01 682.72 333.01 683.8V744.21" stroke="#CBE49B"/>
</g>
<defs>
<clipPath id="clip0_74_40">
<rect width="1100" height="800" fill="white"/>
</clipPath>
</defs>
</svg>
