<svg width="27" height="38" viewBox="0 0 27 38" fill="none" xmlns="http://www.w3.org/2000/svg">
<path d="M13.3333 1H7.33328C5.74198 1 4.21586 1.63214 3.09064 2.75736C1.96542 3.88258 1.33328 5.4087 1.33328 7C1.33328 8.5913 1.96542 10.1174 3.09064 11.2426C4.21586 12.3679 5.74198 13 7.33328 13H13.3333M13.3333 1V13M13.3333 1H19.3333C20.9246 1 22.4507 1.63214 23.5759 2.75736C24.7011 3.88258 25.3333 5.4087 25.3333 7C25.3333 8.5913 24.7011 10.1174 23.5759 11.2426C22.4507 12.3679 20.9246 13 19.3333 13H13.3333" stroke="#D1D1D1" stroke-width="1.5" stroke-linecap="round" stroke-linejoin="round"/>
<path d="M7.33328 25C5.74198 25 4.21586 25.6321 3.09064 26.7574C1.96542 27.8826 1.33328 29.4087 1.33328 31C1.33328 32.5913 1.96542 34.1174 3.09064 35.2426C4.21586 36.3679 5.74198 37 7.33328 37C8.92458 37 10.4507 36.3679 11.5759 35.2426C12.7011 34.1174 13.3333 32.5913 13.3333 31V25M7.33328 25H13.3333M7.33328 25C5.74198 25 4.21586 24.3679 3.09064 23.2426C1.96542 22.1174 1.33328 20.5913 1.33328 19C1.33328 17.4087 1.96542 15.8826 3.09064 14.7574C4.21586 13.6321 5.74198 13 7.33328 13H13.3333V25M13.3333 19C13.3333 17.4087 13.9654 15.8826 15.0906 14.7574C16.2159 13.6321 17.742 13 19.3333 13C20.9246 13 22.4507 13.6321 23.5759 14.7574C24.7011 15.8826 25.3333 17.4087 25.3333 19C25.3333 20.5913 24.7011 22.1174 23.5759 23.2426C22.4507 24.3679 20.9246 25 19.3333 25C17.742 25 16.2159 24.3679 15.0906 23.2426C13.9654 22.1174 13.3333 20.5913 13.3333 19Z" stroke="#D1D1D1" stroke-width="1.5" stroke-linecap="round" stroke-linejoin="round"/>
</svg>
