<svg width="32" height="31" viewBox="0 0 32 31" fill="none" xmlns="http://www.w3.org/2000/svg">
<g clip-path="url(#clip0_10_155)">
<g filter="url(#filter0_d_10_155)">
<path d="M26.1667 23.25H23.5833V11.9479L15.8333 16.7917L8.08332 11.9479V23.25H5.49999V7.75H7.04999L15.8333 13.2396L24.6167 7.75H26.1667M26.1667 5.16667H5.49999C4.06624 5.16667 2.91666 6.31625 2.91666 7.75V23.25C2.91666 23.9351 3.18883 24.5922 3.6733 25.0767C4.15777 25.5612 4.81485 25.8333 5.49999 25.8333H26.1667C26.8518 25.8333 27.5089 25.5612 27.9933 25.0767C28.4778 24.5922 28.75 23.9351 28.75 23.25V7.75C28.75 7.06486 28.4778 6.40778 27.9933 5.92331C27.5089 5.43884 26.8518 5.16667 26.1667 5.16667Z" fill="#D1D1D1"/>
</g>
</g>
<defs>
<filter id="filter0_d_10_155" x="-1.08334" y="5.16667" width="33.8333" height="28.6667" filterUnits="userSpaceOnUse" color-interpolation-filters="sRGB">
<feFlood flood-opacity="0" result="BackgroundImageFix"/>
<feColorMatrix in="SourceAlpha" type="matrix" values="0 0 0 0 0 0 0 0 0 0 0 0 0 0 0 0 0 0 127 0" result="hardAlpha"/>
<feOffset dy="4"/>
<feGaussianBlur stdDeviation="2"/>
<feComposite in2="hardAlpha" operator="out"/>
<feColorMatrix type="matrix" values="0 0 0 0 0 0 0 0 0 0 0 0 0 0 0 0 0 0 0.25 0"/>
<feBlend mode="normal" in2="BackgroundImageFix" result="effect1_dropShadow_10_155"/>
<feBlend mode="normal" in="SourceGraphic" in2="effect1_dropShadow_10_155" result="shape"/>
</filter>
<clipPath id="clip0_10_155">
<rect width="31" height="31" fill="white" transform="translate(0.333313)"/>
</clipPath>
</defs>
</svg>
