<svg width="31" height="31" viewBox="0 0 31 31" fill="none" xmlns="http://www.w3.org/2000/svg">
<g clip-path="url(#clip0_10_138)">
<g filter="url(#filter0_d_10_138)">
<path d="M16.6183 3.00125C17.5305 2.99775 18.4426 3.00692 19.3546 3.02875L19.5971 3.0375C19.8771 3.0475 20.1533 3.06 20.4871 3.075C21.8171 3.1375 22.7246 3.3475 23.5208 3.65625C24.3458 3.97375 25.0408 4.40375 25.7358 5.09875C26.3713 5.72326 26.8631 6.47868 27.1771 7.3125C27.4858 8.10875 27.6958 9.0175 27.7583 10.3475C27.7733 10.68 27.7858 10.9575 27.7958 11.2375L27.8033 11.48C27.8255 12.3915 27.8351 13.3032 27.8321 14.215L27.8333 15.1475V16.785C27.8364 17.6972 27.8268 18.6093 27.8046 19.5213L27.7971 19.7638C27.7871 20.0438 27.7746 20.32 27.7596 20.6538C27.6971 21.9838 27.4846 22.8913 27.1771 23.6875C26.8641 24.5222 26.3722 25.2782 25.7358 25.9025C25.1108 26.5379 24.3549 27.0297 23.5208 27.3438C22.7246 27.6525 21.8171 27.8625 20.4871 27.925C20.1533 27.94 19.8771 27.9525 19.5971 27.9625L19.3546 27.97C18.4426 27.9922 17.5305 28.0018 16.6183 27.9988L15.6858 28H14.0496C13.1374 28.0031 12.2252 27.9935 11.3133 27.9713L11.0708 27.9638C10.7741 27.953 10.4774 27.9405 10.1808 27.9263C8.8508 27.8638 7.9433 27.6513 7.1458 27.3438C6.31166 27.0304 5.5561 26.5385 4.93205 25.9025C4.29586 25.2779 3.80358 24.522 3.48955 23.6875C3.1808 22.8913 2.9708 21.9838 2.9083 20.6538C2.89438 20.3571 2.88188 20.0605 2.8708 19.7638L2.86455 19.5213C2.84151 18.6094 2.83109 17.6972 2.8333 16.785V14.215C2.82981 13.3033 2.83898 12.3915 2.8608 11.48L2.86955 11.2375C2.87955 10.9575 2.89205 10.68 2.90705 10.3475C2.96955 9.01625 3.17955 8.11 3.4883 7.3125C3.80252 6.47828 4.29576 5.72306 4.9333 5.1C5.55692 4.46344 6.312 3.97072 7.1458 3.65625C7.9433 3.3475 8.84955 3.1375 10.1808 3.075L11.0708 3.0375L11.3133 3.03125C12.2248 3.00822 13.1365 2.9978 14.0483 3L16.6183 3.00125ZM15.3333 9.25125C14.5052 9.23954 13.683 9.39253 12.9145 9.70134C12.146 10.0101 11.4466 10.4686 10.8569 11.0501C10.2671 11.6315 9.7988 12.3244 9.47916 13.0885C9.15952 13.8525 8.99492 14.6724 8.99492 15.5006C8.99492 16.3288 9.15952 17.1488 9.47916 17.9128C9.7988 18.6768 10.2671 19.3697 10.8569 19.9512C11.4466 20.5327 12.146 20.9911 12.9145 21.2999C13.683 21.6087 14.5052 21.7617 15.3333 21.75C16.9909 21.75 18.5806 21.0915 19.7527 19.9194C20.9248 18.7473 21.5833 17.1576 21.5833 15.5C21.5833 13.8424 20.9248 12.2527 19.7527 11.0806C18.5806 9.90848 16.9909 9.25125 15.3333 9.25125ZM15.3333 11.7513C15.8314 11.7421 16.3264 11.8322 16.7893 12.0165C17.2522 12.2008 17.6737 12.4754 18.0293 12.8244C18.3848 13.1734 18.6673 13.5898 18.8601 14.0492C19.0529 14.5086 19.1523 15.0018 19.1524 15.5C19.1525 15.9982 19.0533 16.4914 18.8606 16.9509C18.6679 17.4103 18.3856 17.8268 18.0302 18.1759C17.6747 18.525 17.2533 18.7998 16.7905 18.9843C16.3276 19.1687 15.8327 19.259 15.3346 19.25C14.34 19.25 13.3862 18.8549 12.6829 18.1517C11.9796 17.4484 11.5846 16.4946 11.5846 15.5C11.5846 14.5054 11.9796 13.5516 12.6829 12.8483C13.3862 12.1451 14.34 11.75 15.3346 11.75L15.3333 11.7513ZM21.8958 7.37625C21.4925 7.39239 21.1112 7.56394 20.8316 7.85496C20.5519 8.14599 20.3958 8.53392 20.3958 8.9375C20.3958 9.34108 20.5519 9.72901 20.8316 10.02C21.1112 10.3111 21.4925 10.4826 21.8958 10.4988C22.3102 10.4988 22.7076 10.3341 23.0007 10.0411C23.2937 9.74808 23.4583 9.35065 23.4583 8.93625C23.4583 8.52185 23.2937 8.12442 23.0007 7.8314C22.7076 7.53837 22.3102 7.37375 21.8958 7.37375V7.37625Z" fill="#D1D1D1"/>
</g>
</g>
<defs>
<filter id="filter0_d_10_138" x="-1.16742" y="2.99971" width="33.0013" height="33.0009" filterUnits="userSpaceOnUse" color-interpolation-filters="sRGB">
<feFlood flood-opacity="0" result="BackgroundImageFix"/>
<feColorMatrix in="SourceAlpha" type="matrix" values="0 0 0 0 0 0 0 0 0 0 0 0 0 0 0 0 0 0 127 0" result="hardAlpha"/>
<feOffset dy="4"/>
<feGaussianBlur stdDeviation="2"/>
<feComposite in2="hardAlpha" operator="out"/>
<feColorMatrix type="matrix" values="0 0 0 0 0 0 0 0 0 0 0 0 0 0 0 0 0 0 0.25 0"/>
<feBlend mode="normal" in2="BackgroundImageFix" result="effect1_dropShadow_10_138"/>
<feBlend mode="normal" in="SourceGraphic" in2="effect1_dropShadow_10_138" result="shape"/>
</filter>
<clipPath id="clip0_10_138">
<rect width="30" height="30" fill="white" transform="translate(0.333313 0.5)"/>
</clipPath>
</defs>
</svg>
