<svg width="53" height="44" viewBox="0 0 53 44" fill="none" xmlns="http://www.w3.org/2000/svg">
<g filter="url(#filter0_d_23_167)">
<path d="M8.0473 0.704472C8.0473 0.872215 8.41633 1.67738 8.85246 2.48254C10.1608 4.83092 12.006 9.79608 12.5763 12.3793C13.8847 18.6193 12.5763 25.698 9.22149 30.7303C7.40988 33.4477 7.74537 33.7161 10.9996 32.0722C17.206 28.9522 24.3518 28.6503 31.6653 31.2C32.9402 31.6361 33.7789 31.7703 33.9802 31.569C34.4499 31.0993 33.3763 26.8722 31.8666 23.3832C28.4783 15.5329 22.6744 8.68899 15.2602 3.85802C10.7983 0.939312 8.0473 -0.268429 8.0473 0.704472ZM14.5892 4.79737C21.2654 9.29286 25.9621 14.4929 29.686 21.5716C30.9273 23.92 33.0744 29.7909 32.806 30.0258C32.7389 30.0929 31.2628 29.7238 29.5183 29.2541C26.8679 28.5496 25.5595 28.4154 21.8021 28.3819C17.5415 28.3483 17.0718 28.4154 14.2537 29.4219C12.6099 29.9922 11.2008 30.4283 11.1338 30.3948C11.1002 30.3277 11.5028 29.3212 12.0396 28.147C13.8176 24.1548 14.6899 18.3174 14.1196 14.2245C13.717 11.44 12.3415 6.94447 11.2008 4.56254C10.7647 3.62318 10.3957 2.75092 10.3957 2.61673C10.3957 2.2477 12.1067 3.11996 14.5892 4.79737Z" fill="#D1D1D1"/>
<path d="M21.9028 5.90447C21.7686 6.23995 21.9363 6.57544 22.3054 6.81028C23.7815 7.61544 27.1028 10.769 28.7466 12.9161C30.9608 15.8012 34.7518 23.3161 36.0937 27.4425L37.0666 30.529H38.9118C39.9182 30.529 41.4615 30.7974 42.3337 31.0993C43.206 31.4013 44.0447 31.569 44.1453 31.4348C44.8499 30.7638 40.4886 21.7393 37.637 17.9148C33.8124 12.7819 27.2705 7.07866 23.7479 5.83737C22.0705 5.26705 22.1712 5.26705 21.9028 5.90447ZM32.9402 14.3587C34.7183 16.2038 36.8989 18.7871 37.7712 20.129C39.3815 22.6451 42.7699 29.4554 42.535 29.7238C42.4344 29.7909 41.8976 29.6903 41.2937 29.489C40.6899 29.2877 39.717 29.1871 39.1131 29.2877L38.0395 29.4554L37.0666 26.6038C35.7247 22.6116 32.6718 16.4722 30.4241 13.1509C29.3841 11.6412 28.7802 10.5341 29.1157 10.7019C29.4176 10.8696 31.1621 12.5135 32.9402 14.3587Z" fill="#D1D1D1"/>
<path d="M40.2537 33.2128C38.3079 33.3806 32.8731 33.7161 28.1763 34.0515C8.11439 35.3264 4.96084 35.5612 4.69246 35.729C4.52472 35.8296 4.72601 36.6012 5.12859 37.4399L5.86665 38.9832L4.8602 39.7883C4.28988 40.2245 3.21633 40.929 2.44472 41.298C0.968587 42.0025 0.498909 42.9419 1.60601 42.9419C1.94149 42.9419 3.38407 42.2038 4.8602 41.2645C6.33633 40.3587 7.64472 39.587 7.81246 39.587C7.9802 39.587 9.0202 40.258 10.1273 41.0967C13.046 43.2774 14.8241 43.4787 17.1389 41.7677C17.7763 41.3316 18.7828 40.6941 19.4202 40.3922C20.7621 39.7883 21.4667 39.9896 23.5802 41.667C24.486 42.4051 25.3583 42.7406 26.4654 42.8748C27.8744 43.009 28.2099 42.8748 29.6525 41.8012C32.4705 39.6206 33.3763 39.5535 35.557 41.2309C38.3079 43.4116 40.086 43.5458 42.3673 41.8012C45.3867 39.4864 46.0576 39.4528 48.7415 41.6335C50.486 43.009 52.3312 43.4116 52.3312 42.4387C52.3312 42.1703 52.0628 41.9354 51.7273 41.9354C51.3918 41.9354 50.2176 41.2645 49.1776 40.4257C47.5673 39.1845 46.9634 38.9161 45.8228 38.9161C44.4808 38.9161 44.1454 39.0838 41.3273 41.0632C40.1866 41.8348 39.717 41.969 38.7441 41.8012C38.1066 41.667 37.5699 41.4657 37.5699 41.3316C37.5699 41.1974 38.8112 40.4593 40.3544 39.6541C43.7428 37.8761 49.3118 33.9509 49.3118 33.347C49.3118 32.8103 46.4266 32.7767 40.2537 33.2128ZM45.4537 35.0916C44.3131 36.0309 40.1531 38.5135 37.8383 39.6206L36.295 40.3587L35.3892 39.6541C33.8796 38.4464 32.0008 38.6477 29.7866 40.2245C27.2034 42.0696 26.5325 42.2038 24.8215 41.0296C24.0163 40.5264 23.0099 39.8219 22.5066 39.5199C21.0641 38.547 19.5208 38.7483 17.3067 40.258C14.7234 42.0025 13.3815 42.0696 11.3015 40.4593C9.42278 39.0167 8.01375 38.2786 7.47697 38.4799C7.27568 38.547 6.83955 38.1445 6.53762 37.6077C6.03439 36.6012 6.03439 36.5677 6.70536 36.5677C7.54407 36.5677 14.9583 36.098 30.0215 35.0916C36.295 34.6554 42.5686 34.2864 43.9441 34.2864L46.4602 34.2528L45.4537 35.0916Z" fill="#D1D1D1"/>
</g>
<defs>
<filter id="filter0_d_23_167" x="-3.00436" y="0.373535" width="59.3355" height="50.6263" filterUnits="userSpaceOnUse" color-interpolation-filters="sRGB">
<feFlood flood-opacity="0" result="BackgroundImageFix"/>
<feColorMatrix in="SourceAlpha" type="matrix" values="0 0 0 0 0 0 0 0 0 0 0 0 0 0 0 0 0 0 127 0" result="hardAlpha"/>
<feOffset dy="4"/>
<feGaussianBlur stdDeviation="2"/>
<feComposite in2="hardAlpha" operator="out"/>
<feColorMatrix type="matrix" values="0 0 0 0 0 0 0 0 0 0 0 0 0 0 0 0 0 0 0.25 0"/>
<feBlend mode="normal" in2="BackgroundImageFix" result="effect1_dropShadow_23_167"/>
<feBlend mode="normal" in="SourceGraphic" in2="effect1_dropShadow_23_167" result="shape"/>
</filter>
</defs>
</svg>
